<svg height="24" viewBox="0 0 82 24" width="82" xmlns="http://www.w3.org/2000/svg"><path d="M36.019 5.4a5.95 5.95 0 0 1 5.95 5.95v6.639c0 .258-.21.468-.469.468h-2.038a.469.469 0 0 1-.468-.468V11.35a2.975 2.975 0 0 0-5.95 0v6.639c0 .258-.21.468-.47.468h-2.037a.469.469 0 0 1-.468-.468V5.36c0-.309.292-.533.59-.453l2.037.546c.205.055.347.24.347.452v.297A5.917 5.917 0 0 1 36.02 5.4zm15.872 5.21l7.048 7.048c.295.295.086.8-.331.8h-2.689a.937.937 0 0 1-.662-.275l-5.355-5.355v5.16c0 .26-.21.47-.469.47h-2.038a.469.469 0 0 1-.468-.47V.469c0-.307.292-.532.59-.452l2.038.546c.205.055.347.24.347.453v7.377l3.213-3.213a.937.937 0 0 1 .662-.274h2.915c.334 0 .501.403.265.64zm15.814 5.258a4.104 4.104 0 1 0 0-8.209 4.104 4.104 0 0 0 0 8.21zm0-11.137a7.033 7.033 0 1 1 0 14.065 7.033 7.033 0 0 1 0-14.065zm-57.972.071a6.827 6.827 0 0 1 6.778 6.778c.027 3.783-3.165 6.877-6.948 6.877H7.92a.469.469 0 0 1-.469-.468V15.89c0-.259.21-.468.469-.468h1.68c2.086 0 3.846-1.649 3.878-3.735a3.793 3.793 0 0 0-3.852-3.851c-2.085.031-3.734 1.792-3.734 3.878v6.574a6.817 6.817 0 0 1-2.744 5.471.944.944 0 0 1-1.038.067L.176 22.71c-.26-.15-.226-.538.058-.634 1.522-.518 2.623-2.018 2.623-3.788V11.75c0-3.782 3.094-6.975 6.876-6.948zm14.534.652c.205.055.347.24.347.453v12.082c0 .258-.21.468-.468.468h-2.038a.469.469 0 0 1-.469-.468V5.36c0-.309.292-.533.59-.453zm57.351 0c.205.055.348.24.348.453v12.082c0 .258-.21.468-.469.468H79.46a.469.469 0 0 1-.468-.468V5.36c0-.309.292-.533.59-.453z" fill="green" class="color"></path></svg>